<mxfile host="app.diagrams.net" modified="2022-05-16T12:49:10.325Z" agent="5.0 (Windows NT 10.0; Win64; x64) AppleWebKit/537.36 (KHTML, like Gecko) Chrome/101.0.4951.54 Safari/537.36" etag="N7-q1qoVEDYTJPDKxSRK" version="18.0.3" type="github">
  <diagram id="Pp4UJ4THsJMwEIlvclbV" name="Page-1">
    <mxGraphModel dx="1550" dy="809" grid="1" gridSize="10" guides="1" tooltips="1" connect="1" arrows="1" fold="1" page="1" pageScale="1" pageWidth="1169" pageHeight="827" math="0" shadow="0">
      <root>
        <mxCell id="0" />
        <mxCell id="1" parent="0" />
        <mxCell id="ok_7jBPoVi-yf1hhAwQB-7" value="" style="whiteSpace=wrap;html=1;aspect=fixed;" vertex="1" parent="1">
          <mxGeometry x="160" width="760" height="760" as="geometry" />
        </mxCell>
        <mxCell id="Yg4ArwwOmewy4k2MLa1S-1" value="&lt;font style=&quot;font-size: 20px;&quot;&gt;UI&lt;/font&gt;" style="shape=umlActor;verticalLabelPosition=bottom;verticalAlign=top;html=1;outlineConnect=0;" parent="1" vertex="1">
          <mxGeometry x="430" y="120" width="30" height="60" as="geometry" />
        </mxCell>
        <mxCell id="Yg4ArwwOmewy4k2MLa1S-2" value="" style="endArrow=none;dashed=1;html=1;dashPattern=1 3;strokeWidth=2;rounded=0;" parent="1" edge="1">
          <mxGeometry width="50" height="50" relative="1" as="geometry">
            <mxPoint x="740" y="150" as="sourcePoint" />
            <mxPoint x="800" y="150" as="targetPoint" />
          </mxGeometry>
        </mxCell>
        <mxCell id="Yg4ArwwOmewy4k2MLa1S-4" value="" style="endArrow=none;dashed=1;html=1;dashPattern=1 3;strokeWidth=2;rounded=0;" parent="1" edge="1">
          <mxGeometry width="50" height="50" relative="1" as="geometry">
            <mxPoint x="320" y="570" as="sourcePoint" />
            <mxPoint x="320" y="410" as="targetPoint" />
          </mxGeometry>
        </mxCell>
        <mxCell id="Yg4ArwwOmewy4k2MLa1S-5" value="" style="endArrow=none;dashed=1;html=1;dashPattern=1 3;strokeWidth=2;rounded=0;" parent="1" edge="1">
          <mxGeometry width="50" height="50" relative="1" as="geometry">
            <mxPoint x="320" y="150" as="sourcePoint" />
            <mxPoint x="420" y="150" as="targetPoint" />
          </mxGeometry>
        </mxCell>
        <mxCell id="Yg4ArwwOmewy4k2MLa1S-6" value="" style="endArrow=none;dashed=1;html=1;dashPattern=1 3;strokeWidth=2;rounded=0;" parent="1" edge="1">
          <mxGeometry width="50" height="50" relative="1" as="geometry">
            <mxPoint x="320" y="570" as="sourcePoint" />
            <mxPoint x="350" y="570" as="targetPoint" />
          </mxGeometry>
        </mxCell>
        <mxCell id="Yg4ArwwOmewy4k2MLa1S-7" value="Trasa UI" style="text;html=1;strokeColor=none;fillColor=none;align=center;verticalAlign=middle;whiteSpace=wrap;rounded=0;" parent="1" vertex="1">
          <mxGeometry x="670" y="630" width="60" height="40" as="geometry" />
        </mxCell>
        <mxCell id="Yg4ArwwOmewy4k2MLa1S-14" value="" style="endArrow=none;dashed=1;html=1;dashPattern=1 3;strokeWidth=2;rounded=0;fontSize=20;fillColor=#000000;" parent="1" edge="1">
          <mxGeometry width="50" height="50" relative="1" as="geometry">
            <mxPoint x="740" y="650" as="sourcePoint" />
            <mxPoint x="790" y="650" as="targetPoint" />
          </mxGeometry>
        </mxCell>
        <mxCell id="Yg4ArwwOmewy4k2MLa1S-24" value="" style="endArrow=none;dashed=1;html=1;dashPattern=1 3;strokeWidth=2;rounded=0;" parent="1" edge="1">
          <mxGeometry width="50" height="50" relative="1" as="geometry">
            <mxPoint x="770" y="570" as="sourcePoint" />
            <mxPoint x="800" y="569.5" as="targetPoint" />
          </mxGeometry>
        </mxCell>
        <mxCell id="Yg4ArwwOmewy4k2MLa1S-41" value="" style="endArrow=none;dashed=1;html=1;dashPattern=1 3;strokeWidth=2;rounded=0;" parent="1" edge="1">
          <mxGeometry width="50" height="50" relative="1" as="geometry">
            <mxPoint x="799" y="570" as="sourcePoint" />
            <mxPoint x="800" y="400" as="targetPoint" />
          </mxGeometry>
        </mxCell>
        <mxCell id="Yg4ArwwOmewy4k2MLa1S-42" value="" style="endArrow=none;dashed=1;html=1;dashPattern=1 3;strokeWidth=2;rounded=0;" parent="1" edge="1">
          <mxGeometry width="50" height="50" relative="1" as="geometry">
            <mxPoint x="800" y="230" as="sourcePoint" />
            <mxPoint x="800" y="150" as="targetPoint" />
          </mxGeometry>
        </mxCell>
        <mxCell id="Yg4ArwwOmewy4k2MLa1S-43" value="" style="endArrow=none;dashed=1;html=1;dashPattern=1 3;strokeWidth=2;rounded=0;" parent="1" edge="1">
          <mxGeometry width="50" height="50" relative="1" as="geometry">
            <mxPoint x="320" y="300" as="sourcePoint" />
            <mxPoint x="320" y="150" as="targetPoint" />
          </mxGeometry>
        </mxCell>
        <mxCell id="Yg4ArwwOmewy4k2MLa1S-48" value="&lt;font size=&quot;1&quot; style=&quot;&quot;&gt;&lt;b style=&quot;font-size: 26px;&quot;&gt;Priebeh Scény Výťah&lt;/b&gt;&lt;/font&gt;" style="text;html=1;strokeColor=none;fillColor=none;align=center;verticalAlign=middle;whiteSpace=wrap;rounded=0;fontSize=20;" parent="1" vertex="1">
          <mxGeometry x="360" y="20" width="410" height="80" as="geometry" />
        </mxCell>
        <mxCell id="WroV9NoM9GXKldnxKHg1-12" value="UI" style="shape=umlActor;verticalLabelPosition=bottom;verticalAlign=top;html=1;outlineConnect=0;fontSize=20;" parent="1" vertex="1">
          <mxGeometry x="400" y="540" width="30" height="60" as="geometry" />
        </mxCell>
        <mxCell id="WroV9NoM9GXKldnxKHg1-13" value="" style="shape=flexArrow;endArrow=classic;html=1;rounded=0;fontSize=20;fillColor=#000000;" parent="1" edge="1">
          <mxGeometry width="50" height="50" relative="1" as="geometry">
            <mxPoint x="445" y="569.5" as="sourcePoint" />
            <mxPoint x="520" y="570" as="targetPoint" />
          </mxGeometry>
        </mxCell>
        <mxCell id="WroV9NoM9GXKldnxKHg1-14" value="" style="endArrow=none;html=1;rounded=0;fontSize=20;fillColor=#000000;" parent="1" edge="1">
          <mxGeometry width="50" height="50" relative="1" as="geometry">
            <mxPoint x="360" y="580" as="sourcePoint" />
            <mxPoint x="400" y="580" as="targetPoint" />
          </mxGeometry>
        </mxCell>
        <mxCell id="WroV9NoM9GXKldnxKHg1-15" value="" style="endArrow=none;html=1;rounded=0;fontSize=20;fillColor=#000000;" parent="1" edge="1">
          <mxGeometry width="50" height="50" relative="1" as="geometry">
            <mxPoint x="370" y="570" as="sourcePoint" />
            <mxPoint x="410" y="570" as="targetPoint" />
          </mxGeometry>
        </mxCell>
        <mxCell id="WroV9NoM9GXKldnxKHg1-16" value="" style="endArrow=none;html=1;rounded=0;fontSize=20;fillColor=#000000;" parent="1" edge="1">
          <mxGeometry width="50" height="50" relative="1" as="geometry">
            <mxPoint x="350" y="560" as="sourcePoint" />
            <mxPoint x="390" y="560" as="targetPoint" />
          </mxGeometry>
        </mxCell>
        <mxCell id="WroV9NoM9GXKldnxKHg1-17" value="" style="endArrow=none;html=1;rounded=0;fontSize=20;fillColor=#000000;" parent="1" edge="1">
          <mxGeometry width="50" height="50" relative="1" as="geometry">
            <mxPoint x="360" y="550" as="sourcePoint" />
            <mxPoint x="400" y="550" as="targetPoint" />
          </mxGeometry>
        </mxCell>
        <mxCell id="WroV9NoM9GXKldnxKHg1-18" value="Útek" style="text;html=1;strokeColor=none;fillColor=none;align=center;verticalAlign=middle;whiteSpace=wrap;rounded=0;fontSize=20;" parent="1" vertex="1">
          <mxGeometry x="450" y="530" width="60" height="30" as="geometry" />
        </mxCell>
        <mxCell id="WroV9NoM9GXKldnxKHg1-22" value="" style="endArrow=none;html=1;rounded=0;fontSize=40;strokeWidth=4;" parent="1" edge="1">
          <mxGeometry width="50" height="50" relative="1" as="geometry">
            <mxPoint x="545" y="610" as="sourcePoint" />
            <mxPoint x="585" y="530" as="targetPoint" />
          </mxGeometry>
        </mxCell>
        <mxCell id="WroV9NoM9GXKldnxKHg1-26" value="&lt;font style=&quot;font-size: 20px;&quot;&gt;Hráč&lt;/font&gt;" style="shape=umlActor;verticalLabelPosition=bottom;verticalAlign=top;html=1;outlineConnect=0;" parent="1" vertex="1">
          <mxGeometry x="492.5" y="120" width="30" height="60" as="geometry" />
        </mxCell>
        <mxCell id="WroV9NoM9GXKldnxKHg1-28" value="" style="endArrow=none;html=1;rounded=0;fontSize=40;strokeWidth=4;" parent="1" edge="1">
          <mxGeometry width="50" height="50" relative="1" as="geometry">
            <mxPoint x="750" y="700" as="sourcePoint" />
            <mxPoint x="780" y="670" as="targetPoint" />
          </mxGeometry>
        </mxCell>
        <mxCell id="WroV9NoM9GXKldnxKHg1-29" value="Alebo" style="text;html=1;strokeColor=none;fillColor=none;align=center;verticalAlign=middle;whiteSpace=wrap;rounded=0;" parent="1" vertex="1">
          <mxGeometry x="670" y="670" width="60" height="40" as="geometry" />
        </mxCell>
        <mxCell id="tdbVRDwNukAqDiM24LBd-1" value="" style="shape=flexArrow;endArrow=classic;html=1;rounded=0;fontSize=20;fillColor=#000000;" parent="1" edge="1">
          <mxGeometry width="50" height="50" relative="1" as="geometry">
            <mxPoint x="530" y="160" as="sourcePoint" />
            <mxPoint x="619.5" y="160" as="targetPoint" />
            <Array as="points">
              <mxPoint x="589.5" y="160" />
            </Array>
          </mxGeometry>
        </mxCell>
        <mxCell id="tdbVRDwNukAqDiM24LBd-2" value="" style="shape=cube;whiteSpace=wrap;html=1;boundedLbl=1;backgroundOutline=1;darkOpacity=0.05;darkOpacity2=0.1;fontSize=20;" parent="1" vertex="1">
          <mxGeometry x="630" y="120" width="90" height="60" as="geometry" />
        </mxCell>
        <mxCell id="tdbVRDwNukAqDiM24LBd-3" value="Výťah" style="text;html=1;strokeColor=none;fillColor=none;align=center;verticalAlign=middle;whiteSpace=wrap;rounded=0;fontSize=20;" parent="1" vertex="1">
          <mxGeometry x="645" y="190" width="60" height="30" as="geometry" />
        </mxCell>
        <mxCell id="tdbVRDwNukAqDiM24LBd-4" value="&lt;font style=&quot;font-size: 20px;&quot;&gt;UI&lt;/font&gt;" style="shape=umlActor;verticalLabelPosition=bottom;verticalAlign=top;html=1;outlineConnect=0;" parent="1" vertex="1">
          <mxGeometry x="800" y="300" width="30" height="60" as="geometry" />
        </mxCell>
        <mxCell id="tdbVRDwNukAqDiM24LBd-5" value="&lt;font style=&quot;font-size: 20px;&quot;&gt;Hráč&lt;/font&gt;" style="shape=umlActor;verticalLabelPosition=bottom;verticalAlign=top;html=1;outlineConnect=0;" parent="1" vertex="1">
          <mxGeometry x="740" y="300" width="30" height="60" as="geometry" />
        </mxCell>
        <mxCell id="tdbVRDwNukAqDiM24LBd-6" value="" style="shape=callout;whiteSpace=wrap;html=1;perimeter=calloutPerimeter;" parent="1" vertex="1">
          <mxGeometry x="770" y="240" width="130" height="80" as="geometry" />
        </mxCell>
        <mxCell id="tdbVRDwNukAqDiM24LBd-7" value="Konfrontácia" style="text;html=1;strokeColor=none;fillColor=none;align=center;verticalAlign=middle;whiteSpace=wrap;rounded=0;fontStyle=1;fontSize=20;" parent="1" vertex="1">
          <mxGeometry x="770" y="240" width="130" height="50" as="geometry" />
        </mxCell>
        <mxCell id="tdbVRDwNukAqDiM24LBd-13" value="&lt;font style=&quot;font-size: 20px;&quot;&gt;UI&lt;/font&gt;" style="shape=umlActor;verticalLabelPosition=bottom;verticalAlign=top;html=1;outlineConnect=0;" parent="1" vertex="1">
          <mxGeometry x="595" y="540" width="30" height="60" as="geometry" />
        </mxCell>
        <mxCell id="tdbVRDwNukAqDiM24LBd-14" value="Presun" style="text;html=1;strokeColor=none;fillColor=none;align=center;verticalAlign=middle;whiteSpace=wrap;rounded=0;fontSize=20;" parent="1" vertex="1">
          <mxGeometry x="535" y="120" width="60" height="30" as="geometry" />
        </mxCell>
        <mxCell id="tdbVRDwNukAqDiM24LBd-16" value="Získanie Zbrane" style="text;html=1;strokeColor=none;fillColor=none;align=center;verticalAlign=middle;whiteSpace=wrap;rounded=0;fontSize=20;" parent="1" vertex="1">
          <mxGeometry x="700" y="555" width="60" height="30" as="geometry" />
        </mxCell>
        <mxCell id="tdbVRDwNukAqDiM24LBd-19" value="" style="shape=flexArrow;endArrow=classic;html=1;rounded=0;fontSize=20;fillColor=#000000;" parent="1" edge="1">
          <mxGeometry width="50" height="50" relative="1" as="geometry">
            <mxPoint x="625" y="569.5" as="sourcePoint" />
            <mxPoint x="690" y="570" as="targetPoint" />
          </mxGeometry>
        </mxCell>
        <mxCell id="tdbVRDwNukAqDiM24LBd-8" value="&lt;font style=&quot;font-size: 20px;&quot;&gt;UI&lt;/font&gt;" style="shape=umlActor;verticalLabelPosition=bottom;verticalAlign=top;html=1;outlineConnect=0;" parent="1" vertex="1">
          <mxGeometry x="170" y="333.3333333333333" width="24.444444444444443" height="40" as="geometry" />
        </mxCell>
        <mxCell id="tdbVRDwNukAqDiM24LBd-10" value="" style="shape=flexArrow;endArrow=classic;html=1;rounded=0;fontSize=20;fillColor=#000000;" parent="1" edge="1">
          <mxGeometry width="50" height="50" relative="1" as="geometry">
            <mxPoint x="202.59555555555553" y="359.99666666666667" as="sourcePoint" />
            <mxPoint x="269.8177777777778" y="360.33" as="targetPoint" />
          </mxGeometry>
        </mxCell>
        <mxCell id="tdbVRDwNukAqDiM24LBd-11" value="Útok" style="text;html=1;strokeColor=none;fillColor=none;align=center;verticalAlign=middle;whiteSpace=wrap;rounded=0;fontSize=20;" parent="1" vertex="1">
          <mxGeometry x="202.5925925925926" y="333.3333333333333" width="48.888888888888886" height="20" as="geometry" />
        </mxCell>
        <mxCell id="tdbVRDwNukAqDiM24LBd-12" value="&lt;font style=&quot;font-size: 20px;&quot;&gt;Hráč&lt;/font&gt;" style="shape=umlActor;verticalLabelPosition=bottom;verticalAlign=top;html=1;outlineConnect=0;" parent="1" vertex="1">
          <mxGeometry x="275.9259259259259" y="333.3333333333333" width="24.444444444444443" height="40" as="geometry" />
        </mxCell>
        <mxCell id="ok_7jBPoVi-yf1hhAwQB-1" value="UI" style="shape=umlActor;verticalLabelPosition=bottom;verticalAlign=top;html=1;outlineConnect=0;fontSize=20;" vertex="1" parent="1">
          <mxGeometry x="347.03703703703707" y="340" width="24.444444444444443" height="40" as="geometry" />
        </mxCell>
        <mxCell id="ok_7jBPoVi-yf1hhAwQB-2" value="" style="shape=flexArrow;endArrow=classic;html=1;rounded=0;fontSize=20;fillColor=#000000;" edge="1" parent="1">
          <mxGeometry width="50" height="50" relative="1" as="geometry">
            <mxPoint x="380.7437037037037" y="369.99666666666667" as="sourcePoint" />
            <mxPoint x="450.00296296296295" y="370.33" as="targetPoint" />
          </mxGeometry>
        </mxCell>
        <mxCell id="ok_7jBPoVi-yf1hhAwQB-3" value="Krytie" style="text;html=1;strokeColor=none;fillColor=none;align=center;verticalAlign=middle;whiteSpace=wrap;rounded=0;fontSize=20;" vertex="1" parent="1">
          <mxGeometry x="387.77777777777777" y="333.3333333333333" width="48.888888888888886" height="20" as="geometry" />
        </mxCell>
        <mxCell id="ok_7jBPoVi-yf1hhAwQB-4" value="" style="shape=parallelogram;perimeter=parallelogramPerimeter;whiteSpace=wrap;html=1;fixedSize=1;fontSize=20;direction=north;flipV=1;" vertex="1" parent="1">
          <mxGeometry x="461.1111111111111" y="320" width="48.888888888888886" height="80" as="geometry" />
        </mxCell>
        <mxCell id="ok_7jBPoVi-yf1hhAwQB-6" value="" style="endArrow=none;html=1;rounded=0;fontSize=40;strokeWidth=4;" edge="1" parent="1">
          <mxGeometry width="50" height="50" relative="1" as="geometry">
            <mxPoint x="310" y="410" as="sourcePoint" />
            <mxPoint x="350" y="330" as="targetPoint" />
          </mxGeometry>
        </mxCell>
      </root>
    </mxGraphModel>
  </diagram>
</mxfile>
